<?xml version="1.0" encoding="utf-8"?>
<!-- Generator: Adobe Illustrator 16.0.0, SVG Export Plug-In . SVG Version: 6.00 Build 0)  -->
<!DOCTYPE svg PUBLIC "-//W3C//DTD SVG 1.1//EN" "http://www.w3.org/Graphics/SVG/1.1/DTD/svg11.dtd">
<svg version="1.1" xmlns="http://www.w3.org/2000/svg" xmlns:xlink="http://www.w3.org/1999/xlink" x="0px" y="0px"
	 width="786.104px" height="209.783px" viewBox="0 0 786.104 209.783" enable-background="new 0 0 786.104 209.783"
	 xml:space="preserve">
<g id="Layer_3">
</g>
<g id="Layer_2">
	<path fill-rule="evenodd" clip-rule="evenodd" fill="#FFFFFF" d="M85.669,94.073c10.133,3.356,19.962,6.61,29.791,9.865
		c0.118-0.139,0.236-0.279,0.354-0.418C81.421,69.093,47.029,34.665,12.434,0.036c1.108-0.194,1.582,0.438,2.1,0.796
		c13.945,9.651,27.893,19.298,41.805,28.996c30.567,21.308,61.057,42.728,91.705,63.917c8.846,6.116,18.061,11.698,26.395,18.542
		c7.395,6.074,14.516,12.419,19.746,20.563c2.459,3.83,4.333,7.883,4.108,12.615c-0.076,1.607-0.481,3.1-1.108,4.571
		c-0.602,1.415-1.161,1.578-2.273,0.368c-4.414-4.803-9.302-9.082-14.621-12.867c-9.745-6.941-20.305-11.924-32.289-13.504
		c-5.96-0.788-11.877-0.518-17.735,0.817c-1.262,0.287-2.293,0.173-3.401-0.625c-13.263-9.563-26.561-19.078-39.846-28.61
		C86.587,95.305,86.047,95.099,85.669,94.073z M183.497,133.194c2.382,1.798,4.545,3.445,6.727,5.066
		c0.366,0.272,0.735,0.801,1.254,0.522c0.591-0.315,0.386-0.981,0.352-1.492c-0.193-2.845-1.576-5.197-3.248-7.384
		c-3.352-4.382-7.572-7.841-12.009-11.055c-3.207-2.323-6.504-4.505-10.027-6.339c0.417,0.544,0.913,0.979,1.411,1.409
		c5.786,4.993,11.735,9.809,16.847,15.53C186.95,131.853,186.807,132.31,183.497,133.194z M150.12,85.809
		c-21.308-25.548-42.617-51.097-64.138-76.9c-0.175,1.184,0.3,1.71,0.584,2.278c1.632,3.258,3.314,6.49,4.951,9.746
		c5.59,11.125,11.175,22.25,16.739,33.387c0.558,1.118,1.295,2.002,2.302,2.75c12.579,9.348,25.139,18.722,37.708,28.084
		c0.478,0.357,0.988,0.669,1.484,1.002C149.873,86.041,149.997,85.924,150.12,85.809z"/>
	<path fill="#FFFFFF" d="M226.253,151.214h-17.542V56.571h59.837v14.63h-42.295v25.862h33.281v14.214h-33.281V151.214z
		 M348.423,151.214h-18.235l-7.558-22.534h-36.401l-7.419,22.534h-14.561l31.409-94.644h21.009L348.423,151.214z M318.054,115.021
		l-13.798-42.226l-13.798,42.226H318.054z M418.036,151.214h-58.242V56.571h17.958v79.182h40.284V151.214z M481.479,118.349
		l15.809,1.733c-1.018,9.476-4.681,17.276-10.989,23.401c-6.311,6.125-14.596,9.187-24.857,9.187
		c-8.645,0-15.659-2.172-21.043-6.518c-5.386-4.344-9.534-10.238-12.446-17.681c-2.912-7.442-4.368-15.646-4.368-24.614
		c0-14.422,3.42-26.15,10.262-35.188c6.841-9.037,16.247-13.555,28.22-13.555c9.383,0,17.195,2.889,23.436,8.667
		c6.24,5.779,10.169,14.052,11.787,24.822l-15.809,1.664c-2.912-14.283-9.338-21.425-19.275-21.425
		c-6.379,0-11.337,2.971-14.872,8.91c-3.537,5.94-5.305,14.55-5.305,25.828c0,11.464,1.895,20.119,5.686,25.966
		c3.79,5.848,8.806,8.771,15.046,8.771c4.992,0,9.244-1.964,12.758-5.894C479.028,128.496,481.016,123.804,481.479,118.349z
		 M545.684,152.67c-12.573,0-22.36-4.715-29.364-14.145c-7.002-9.43-10.504-21.078-10.504-34.945
		c0-13.774,3.721-25.296,11.163-34.564c7.441-9.267,17.265-13.902,29.468-13.902c12.295,0,22.014,4.635,29.156,13.902
		c7.141,9.268,10.712,20.859,10.712,34.772c0,14.607-3.71,26.406-11.128,35.396C567.767,148.175,557.933,152.67,545.684,152.67z
		 M545.822,138.942c6.147,0,11.348-2.542,15.601-7.627c4.252-5.084,6.379-14.306,6.379-27.665c0-10.862-1.757-19.379-5.27-25.55
		c-3.514-6.171-8.968-9.256-16.363-9.256c-14.607,0-21.91,11.764-21.91,35.292c0,11.417,1.86,20.073,5.582,25.966
		C533.561,135.995,538.889,138.942,545.822,138.942z M673.678,151.214h-16.571L621.19,90.753c-0.555-0.924-1.456-2.427-2.704-4.507
		c-0.555-0.924-1.41-2.38-2.565-4.368v69.336h-13.729V56.571h18.859l33.143,55.746c0.277,0.462,2.288,3.86,6.032,10.192V56.571
		h13.451V151.214z"/>
	<path fill="#FFFFFF" d="M458.365,201.83h-6.425v-28.084h-8.834v-5.135h24.093v5.135h-8.834V201.83z M486.806,201.83h-5.987v-33.219
		h5.987V201.83z M522.643,190.295l5.549,0.608c-0.356,3.326-1.643,6.063-3.857,8.214c-2.214,2.149-5.122,3.225-8.725,3.225
		c-3.033,0-5.496-0.763-7.386-2.288c-1.891-1.524-3.347-3.594-4.368-6.206c-1.022-2.611-1.533-5.491-1.533-8.639
		c0-5.063,1.2-9.179,3.602-12.352c2.401-3.171,5.703-4.758,9.905-4.758c3.293,0,6.035,1.015,8.226,3.043
		c2.19,2.027,3.569,4.932,4.137,8.712l-5.549,0.584c-1.021-5.013-3.277-7.52-6.765-7.52c-2.239,0-3.979,1.042-5.221,3.127
		s-1.861,5.106-1.861,9.065c0,4.023,0.665,7.062,1.995,9.114c1.33,2.052,3.091,3.078,5.281,3.078c1.752,0,3.244-0.689,4.478-2.068
		S522.48,192.209,522.643,190.295z M569.019,201.83h-6.692l-7.009-16.913l-6.425,8.518v8.396h-5.987v-33.219h5.987v17.449
		c0.762-1.185,1.313-2.004,1.654-2.458l11.024-14.991h6.06l-7.885,10.927L569.019,201.83z M605.051,201.83h-21.587v-33.219h21.367
		v4.94h-15.38v9.004h12.362v4.818h-12.362v9.297h15.6V201.83z M631.786,201.83h-6.425v-28.084h-8.834v-5.135h24.093v5.135h-8.834
		V201.83z M651.148,193.823l5.816-1.241c0.698,3.294,3.375,4.94,8.031,4.94c2.125,0,3.76-0.422,4.904-1.266
		c1.144-0.843,1.716-1.89,1.716-3.139c0-0.909-0.26-1.748-0.779-2.52c-0.52-0.77-1.631-1.375-3.334-1.813l-6.352-1.655
		c-2.175-0.567-3.78-1.212-4.818-1.935c-1.039-0.722-1.87-1.74-2.495-3.054c-0.625-1.314-0.937-2.718-0.937-4.211
		c0-2.969,1.103-5.35,3.31-7.143c2.206-1.792,5.029-2.689,8.469-2.689c2.855,0,5.406,0.625,7.654,1.874
		c2.247,1.25,3.679,3.018,4.295,5.306l-5.694,1.411c-0.876-2.515-2.921-3.771-6.133-3.771c-1.866,0-3.29,0.389-4.271,1.168
		c-0.981,0.778-1.472,1.769-1.472,2.969c0,1.898,1.541,3.229,4.623,3.991l5.646,1.412c3.423,0.859,5.719,2.129,6.888,3.809
		c1.168,1.679,1.752,3.532,1.752,5.561c0,3.261-1.229,5.828-3.688,7.702s-5.642,2.812-9.552,2.812c-3.294,0-6.178-0.689-8.651-2.069
		C653.603,198.894,651.96,196.744,651.148,193.823z"/>
</g>
</svg>
